<svg width="657" height="99" viewBox="0 0 657 99" fill="none" xmlns="http://www.w3.org/2000/svg">
<path d="M231.513 76.1993L242.041 16.6349C243.149 9.98591 244.119 4.86051 244.811 0.012207H320.029C355.352 0.012207 370.313 10.6785 365.603 37.2748C362.694 54.1746 355.63 62.6245 339.699 66.9183C341.639 70.2433 343.44 73.5673 345.24 76.8923C348.842 84.0953 352.721 91.4373 356.461 98.3633H320.583C318.367 93.6533 315.319 87.8353 311.995 81.7403L307.839 74.2603H264.759L264.482 76.1993C262.958 85.3423 261.711 92.2683 260.742 98.3633H227.496C228.743 92.4073 229.851 85.4803 231.513 76.1993ZM316.151 27.1627H273.209L269.468 47.664H312.549C326.401 47.664 330.972 44.3395 332.219 37.2748C333.466 30.2102 330.003 27.1627 316.151 27.1627Z" fill="#0F0A14"/>
<path d="M403.562 71.4903C421.57 71.4903 473.931 71.4903 485.013 71.3513L480.303 98.3633H359.234L365.883 60.8237L410.626 42.8157C423.786 37.4133 437.361 32.1495 450.798 26.8856H443.318C426.695 26.8856 383.476 26.8856 372.394 27.0241L377.104 0.012207H496.649L490 37.5519L444.426 55.5598C430.989 60.9622 417.137 66.2263 403.562 71.4903Z" fill="#0F0A14"/>
<path d="M493.142 76.1993L503.67 16.6349C504.778 9.98591 505.748 4.86051 506.441 0.012207H581.658C616.982 0.012207 631.942 10.6785 627.232 37.2748C624.323 54.1746 617.259 62.6245 601.329 66.9183C603.268 70.2433 605.069 73.5673 606.87 76.8923C610.471 84.0953 614.35 91.4373 618.09 98.3633H582.213C579.996 93.6533 576.949 87.8353 573.624 81.7403L569.468 74.2603H526.388L526.111 76.1993C524.587 85.3423 523.34 92.2683 522.371 98.3633H489.125C490.372 92.4073 491.48 85.4803 493.142 76.1993ZM577.78 27.1627H534.838L531.098 47.664H574.178C588.03 47.664 592.602 44.3395 593.848 37.2748C595.095 30.2102 591.632 27.1627 577.78 27.1627Z" fill="#0F0A14"/>
<path d="M156.104 80.2544H104.289L140.652 98.9374H191.74L156.104 80.2544Z" fill="url(#paint0_linear_1873_116)"/>
<path d="M0 0.437308C2.7408 0.248308 6.4904 0.0259061 9.2937 0.0262061L149.206 0.0229064C152.777 0.0229064 156.732 -0.0704935 160.26 0.119906C163.054 0.287806 165.816 0.825908 168.478 1.72141C177.349 4.72231 184.691 11.276 188.862 19.9184C195.296 33.1982 186.529 50.2813 180.389 62.5311C177.195 68.9313 171.57 73.7833 164.775 76.0053C162.736 76.6693 160.62 77.0673 158.48 77.1913C155.778 77.3323 152.748 77.2643 150.012 77.2643L42.838 77.2613C40.691 77.2613 37.986 77.3353 35.887 77.1953L68.323 58.5822C74.567 54.843 81.548 51.8036 86.842 51.8036H154.654C157.411 44.3813 159.379 38.4784 162.773 26.7509L87.081 25.477C83.696 25.4768 59.925 25.477 57.228 25.477C52.606 25.477 48.754 25.0523 45.865 23.5662L40.2 20.6162L0 0.437308Z" fill="url(#paint1_linear_1873_116)"/>
<path d="M0 0.437308C2.7408 0.248308 6.4904 0.0259061 9.2937 0.0262061L149.206 0.0229064C152.777 0.0229064 156.732 -0.0704935 160.26 0.119906C163.054 0.287806 165.816 0.825908 168.478 1.72141C177.349 4.72231 184.691 11.276 188.862 19.9184C195.296 33.1982 186.529 50.2813 180.389 62.5311C177.195 68.9313 171.57 73.7833 164.775 76.0053C162.736 76.6693 160.62 77.0673 158.48 77.1913C155.778 77.3323 152.748 77.2643 150.012 77.2643L42.838 77.2613C40.691 77.2613 37.986 77.3353 35.887 77.1953L68.323 58.5822C74.567 54.843 81.548 51.8036 86.842 51.8036H154.654C157.411 44.3813 159.379 38.4784 162.773 26.7509L87.081 25.477C83.696 25.4768 59.925 25.477 57.228 25.477C52.606 25.477 48.754 25.0523 45.865 23.5662L40.2 20.6162L0 0.437308Z" fill="url(#paint2_linear_1873_116)"/>
<path d="M0 0.437308C2.7408 0.248308 6.4904 0.0259061 9.2937 0.0262061L149.206 0.0229064C152.777 0.0229064 156.732 -0.0704935 160.26 0.119906C163.054 0.287806 165.816 0.825908 168.478 1.72141C177.349 4.72231 184.691 11.276 188.862 19.9184C195.296 33.1982 186.529 50.2813 180.389 62.5311C177.195 68.9313 171.57 73.7833 164.775 76.0053C162.736 76.6693 160.62 77.0673 158.48 77.1913C155.778 77.3323 152.748 77.2643 150.012 77.2643L42.838 77.2613C40.691 77.2613 37.986 77.3353 35.887 77.1953L68.323 58.5822C74.567 54.843 81.548 51.8036 86.842 51.8036H154.654C157.411 44.3813 159.379 38.4784 162.773 26.7509L87.081 25.477C83.696 25.4768 59.925 25.477 57.228 25.477C52.606 25.477 48.754 25.0523 45.865 23.5662L40.2 20.6162L0 0.437308Z" fill="url(#paint3_linear_1873_116)"/>
<path d="M631.869 86.6782V85.2722H641.688V86.6782H637.571V98.3632H635.986V86.6782H631.869ZM643.774 85.2722H645.666L650.115 96.1392H650.268L654.717 85.2722H656.609V98.3632H655.126V88.4172H654.998L650.908 98.3632H649.476L645.385 88.4172H645.257V98.3632H643.774V85.2722Z" fill="#0F0A14"/>
<defs>
<linearGradient id="paint0_linear_1873_116" x1="117.788" y1="89.5084" x2="201.525" y2="89.5084" gradientUnits="userSpaceOnUse">
<stop stop-color="#FF7A00"/>
<stop offset="0.475962" stop-color="#DC1A14"/>
<stop offset="0.942308" stop-color="#E63E6D"/>
</linearGradient>
<linearGradient id="paint1_linear_1873_116" x1="207.5" y1="39" x2="-197" y2="38.3633" gradientUnits="userSpaceOnUse">
<stop offset="0.0432692" stop-color="#FB3B00"/>
<stop offset="0.293442" stop-color="#0968ED"/>
<stop offset="0.793269" stop-color="#0968ED"/>
<stop offset="0.946268" stop-color="#0049AF"/>
</linearGradient>
<linearGradient id="paint2_linear_1873_116" x1="207.5" y1="39" x2="12" y2="38.2813" gradientUnits="userSpaceOnUse">
<stop offset="0.0537323" stop-color="#05F6FF"/>
<stop offset="0.509615" stop-color="#0968ED"/>
<stop offset="0.882721" stop-color="#FB3B00"/>
</linearGradient>
<linearGradient id="paint3_linear_1873_116" x1="29.5" y1="38.2813" x2="212.5" y2="38.2813" gradientUnits="userSpaceOnUse">
<stop stop-color="#FF7A00"/>
<stop offset="0.475962" stop-color="#DC1A14"/>
<stop offset="0.942308" stop-color="#E63E6D"/>
</linearGradient>
</defs>
</svg>
